<svg width="270" height="43" viewBox="0 0 270 43" fill="none" xmlns="http://www.w3.org/2000/svg">
<path d="M77.5469 15.5938C79.8125 15.5938 81.7461 16.3945 83.3477 17.9961C84.9492 19.5977 85.75 21.5312 85.75 23.7969V29.0703L81.0625 33.7578V28.4844H71.6875V32H67V23.7969C67 21.5312 67.8008 19.5977 69.4023 17.9961C71.0039 16.3945 72.9375 15.5938 75.2031 15.5938H77.5469ZM81.0625 23.7969C81.0625 22.8281 80.7188 22 80.0312 21.3125C79.3438 20.625 78.5156 20.2812 77.5469 20.2812H75.2031C74.2344 20.2812 73.4062 20.625 72.7188 21.3125C72.0312 22 71.6875 22.8281 71.6875 23.7969H81.0625ZM91.6094 27.3125H103.328L108.016 32H86.9219V15.5938H91.6094V27.3125ZM112.703 15.5938H125.594L120.906 20.2812H112.703C111.734 20.2812 110.906 20.625 110.219 21.3125C109.531 22 109.188 22.8281 109.188 23.7969C109.188 24.7656 109.531 25.5938 110.219 26.2812C110.906 26.9688 111.734 27.3125 112.703 27.3125H118.562V26.1406H112.703V21.4531H123.25V32H112.703C110.438 32 108.504 31.1992 106.902 29.5977C105.301 27.9961 104.5 26.0625 104.5 23.7969C104.5 21.5312 105.301 19.5977 106.902 17.9961C108.504 16.3945 110.438 15.5938 112.703 15.5938ZM132.625 32C130.359 32 128.426 31.1992 126.824 29.5977C125.223 27.9961 124.422 26.0625 124.422 23.7969C124.422 21.5312 125.223 19.5977 126.824 17.9961C128.426 16.3945 130.359 15.5938 132.625 15.5938H134.969C137.234 15.5938 139.168 16.3945 140.77 17.9961C142.371 19.5977 143.172 21.5312 143.172 23.7969C143.172 26.0625 142.371 27.9961 140.77 29.5977C139.168 31.1992 137.234 32 134.969 32H132.625ZM132.625 20.2812C131.656 20.2812 130.828 20.625 130.141 21.3125C129.453 22 129.109 22.8281 129.109 23.7969C129.109 24.7656 129.453 25.5938 130.141 26.2812C130.828 26.9688 131.656 27.3125 132.625 27.3125H134.969C135.938 27.3125 136.766 26.9688 137.453 26.2812C138.141 25.5938 138.484 24.7656 138.484 23.7969C138.484 22.8281 138.141 22 137.453 21.3125C136.766 20.625 135.938 20.2812 134.969 20.2812H132.625ZM164.266 15.5938L159.578 20.2812H154.891V29.0703L150.203 33.7578V20.2812H143.172V15.5938H164.266ZM167.781 32H163.094V18.5234L167.781 13.8359V32ZM182.43 15.5938C183.883 15.5938 185.125 16.1094 186.156 17.1406C187.188 18.1719 187.703 19.4141 187.703 20.8672C187.703 22.3203 187.188 23.5625 186.156 24.5938C185.125 25.625 183.883 26.1406 182.43 26.1406H173.641V33.7578L168.953 29.0703V15.5938H182.43ZM173.641 20.2812V21.4531H182.43C182.594 21.4531 182.73 21.3984 182.84 21.2891C182.957 21.1719 183.016 21.0312 183.016 20.8672C183.016 20.7031 182.957 20.5664 182.84 20.457C182.73 20.3398 182.594 20.2812 182.43 20.2812H173.641ZM202.352 15.5938C203.805 15.5938 205.047 16.1094 206.078 17.1406C207.109 18.1719 207.625 19.4141 207.625 20.8672C207.625 22.3203 207.109 23.5625 206.078 24.5938C205.047 25.625 203.805 26.1406 202.352 26.1406H193.562V33.7578L188.875 29.0703V15.5938H202.352ZM193.562 20.2812V21.4531H202.352C202.516 21.4531 202.652 21.3984 202.762 21.2891C202.879 21.1719 202.938 21.0312 202.938 20.8672C202.938 20.7031 202.879 20.5664 202.762 20.457C202.652 20.3398 202.516 20.2812 202.352 20.2812H193.562ZM213.484 27.3125H227.547V32H208.797V15.5938H229.891L225.203 20.2812H213.484V21.4531H225.203V26.1406H213.484V27.3125ZM242.195 15.5938C243.648 15.5938 244.891 16.1094 245.922 17.1406C246.953 18.1719 247.469 19.4141 247.469 20.8672C247.469 22.3203 246.953 23.5625 245.922 24.5938C245.336 25.1797 244.68 25.5977 243.953 25.8477L250.105 32H243.473L233.406 21.9336V33.7578L228.719 29.0703V15.5938H242.195ZM233.406 20.2812V21.4531H242.195C242.359 21.4531 242.496 21.3984 242.605 21.2891C242.723 21.1719 242.781 21.0312 242.781 20.8672C242.781 20.7031 242.723 20.5664 242.605 20.457C242.496 20.3398 242.359 20.2812 242.195 20.2812H233.406ZM269.734 15.5938L265.047 20.2812H253.914C253.75 20.2812 253.609 20.3398 253.492 20.457C253.383 20.5664 253.328 20.7031 253.328 20.8672C253.328 21.0312 253.383 21.1719 253.492 21.2891C253.609 21.3984 253.75 21.4531 253.914 21.4531H262.117C263.57 21.4531 264.812 21.9688 265.844 23C266.875 24.0312 267.391 25.2734 267.391 26.7266C267.391 28.1797 266.875 29.4219 265.844 30.4531C264.812 31.4844 263.57 32 262.117 32H246.297L250.984 27.3125H262.117C262.281 27.3125 262.418 27.2578 262.527 27.1484C262.645 27.0312 262.703 26.8906 262.703 26.7266C262.703 26.5625 262.645 26.4258 262.527 26.3164C262.418 26.1992 262.281 26.1406 262.117 26.1406H253.914C252.461 26.1406 251.219 25.625 250.188 24.5938C249.156 23.5625 248.641 22.3203 248.641 20.8672C248.641 19.4141 249.156 18.1719 250.188 17.1406C251.219 16.1094 252.461 15.5938 253.914 15.5938H269.734Z" fill="white"/>
<g clip-path="url(#clip0_101_9)">
<path d="M38.2879 20.1236C38.2308 22.4017 37.4783 24.6078 36.1315 26.446L17.9946 13.1129C19.42 11.1891 21.4218 9.77009 23.7089 9.06198C25.9961 8.35387 28.4495 8.39361 30.7125 9.17541C32.9756 9.95722 34.9303 11.4403 36.2927 13.4092C37.655 15.3781 38.354 17.7302 38.2879 20.1236V20.1236Z" fill="#FBDF40"/>
<path d="M36.806 18.5131C36.7454 20.9382 35.9449 23.2867 34.5119 25.2439L15.2097 11.0528C16.7273 9.00711 18.8576 7.4984 21.2911 6.74576C23.7245 5.99312 26.3346 6.03574 28.7422 6.86744C31.1498 7.69913 33.2297 9.2766 34.6797 11.3708C36.1298 13.465 36.8746 15.9668 36.806 18.5131V18.5131Z" fill="#FF7F40"/>
<path d="M34.9249 17.1275C34.8632 19.5537 34.0629 21.9034 32.6308 23.8629L13.3056 9.73145C14.8171 7.68085 16.9429 6.16546 19.3743 5.40535C21.8057 4.64525 24.4161 4.68001 26.8264 5.50459C29.2367 6.32916 31.3214 7.90062 32.7777 9.99074C34.2341 12.0809 34.9862 14.5808 34.9249 17.1275V17.1275Z" fill="#AF1AAC"/>
<path d="M45.2574 36.5445C45.2574 40.1141 42.5045 43 39.1001 43H6.15728C2.75288 43 0 40.0957 0 36.5124V0L13.3056 9.75437C11.953 11.7938 11.2375 14.1894 11.2501 16.6366C11.2501 23.2573 16.3383 28.6208 22.6195 28.6208C24.4958 28.6069 26.3385 28.1214 27.978 27.209C29.6176 26.2966 31.0014 24.9866 32.0022 23.3995L42.61 31.1993C43.4403 31.8195 44.1127 32.6267 44.5727 33.5554C45.0327 34.4841 45.2672 35.5082 45.2574 36.5445Z" fill="url(#paint0_linear_101_9)"/>
</g>
<defs>
<linearGradient id="paint0_linear_101_9" x1="3.34016" y1="42.1787" x2="32.6583" y2="7.70348" gradientUnits="userSpaceOnUse">
<stop offset="0.09" stop-color="#AF1AAC"/>
<stop offset="0.99" stop-color="#4A24AA"/>
</linearGradient>
<clipPath id="clip0_101_9">
<rect width="45.2574" height="43" fill="white"/>
</clipPath>
</defs>
</svg>
