<svg width="1440" height="1024" viewBox="0 0 1440 1024" fill="none" xmlns="http://www.w3.org/2000/svg">
<rect width="1440" height="1024" fill="#4A24AA"/>
<path opacity="0.2" d="M1182.71 439.827C1262.23 234.854 1411.15 451.318 1440 565.606V1024H-1V526.475C41.3264 568.401 137.013 634.924 181.146 565.606C236.313 478.958 304.321 399.764 385.645 670.887C466.968 942.011 604.886 601.942 692.868 439.827C780.849 277.712 890.232 706.292 985.823 565.606C1081.41 424.92 1083.32 696.043 1182.71 439.827Z" fill="url(#paint0_linear_4_1842)" fill-opacity="0.5"/>
<path opacity="0.2" d="M195.5 390.046C111.9 167.606 30.3333 360.05 0 484.077V1024H1440V484.077C1395.5 529.576 1294.9 601.768 1248.5 526.543C1190.5 432.512 1119 346.569 1033.5 640.797C948 935.024 803 565.976 710.5 390.046C618 214.116 503 679.218 402.5 526.543C302 373.868 300 668.096 195.5 390.046Z" fill="url(#paint1_linear_4_1842)"/>
<defs>
<linearGradient id="paint0_linear_4_1842" x1="1368.66" y1="630.824" x2="-1.00775" y2="632.766" gradientUnits="userSpaceOnUse">
<stop stop-color="#AF1AAC"/>
<stop offset="1" stop-color="white" stop-opacity="0"/>
</linearGradient>
<linearGradient id="paint1_linear_4_1842" x1="6.60854e-06" y1="597.319" x2="1440.01" y2="599.298" gradientUnits="userSpaceOnUse">
<stop stop-color="#AF1AAC"/>
<stop offset="1" stop-color="white" stop-opacity="0"/>
</linearGradient>
</defs>
</svg>
