<svg width="26" height="24" viewBox="0 0 26 24" fill="none" xmlns="http://www.w3.org/2000/svg">
<g clip-path="url(#clip0_4_1951)">
<path d="M21.37 11.2317C21.3381 12.5032 20.9181 13.7346 20.1664 14.7606L10.0435 7.31881C10.8391 6.24509 11.9563 5.45306 13.2329 5.05784C14.5095 4.66261 15.8788 4.68479 17.1419 5.12115C18.405 5.5575 19.496 6.3853 20.2564 7.48422C21.0168 8.58314 21.4069 9.89591 21.37 11.2317Z" fill="#FBDF40"/>
<path d="M20.5429 10.3329C20.5091 11.6864 20.0623 12.9972 19.2625 14.0896L8.48914 6.16901C9.33621 5.02721 10.5252 4.18514 11.8834 3.76506C13.2416 3.34498 14.6984 3.36877 16.0422 3.83297C17.386 4.29718 18.5468 5.17762 19.3562 6.34647C20.1655 7.51532 20.5812 8.91172 20.5429 10.3329Z" fill="#FF7F40"/>
<path d="M19.493 9.55953C19.4585 10.9137 19.0118 12.2251 18.2126 13.3188L7.42639 5.43148C8.27 4.28696 9.4565 3.44116 10.8136 3.01692C12.1706 2.59267 13.6276 2.61208 14.9729 3.07231C16.3182 3.53253 17.4817 4.40963 18.2946 5.57621C19.1074 6.74279 19.5272 8.1381 19.493 9.55953Z" fill="#AF1AAC"/>
<path d="M25.2599 20.3969C25.2599 22.3892 23.7234 24 21.8233 24H3.43662C1.53649 24 0 22.379 0 20.379V0L7.42638 5.4443C6.67146 6.58259 6.27212 7.91968 6.27913 9.28553C6.27913 12.9808 9.11908 15.9744 12.6248 15.9744C13.6721 15.9666 14.7005 15.6957 15.6156 15.1864C16.5308 14.6772 17.3031 13.946 17.8617 13.0602L23.7823 17.4136C24.2458 17.7597 24.6211 18.2103 24.8778 18.7286C25.1345 19.2469 25.2654 19.8185 25.2599 20.3969Z" fill="url(#paint0_linear_4_1951)"/>
</g>
<defs>
<linearGradient id="paint0_linear_4_1951" x1="1.86428" y1="23.5416" x2="18.2279" y2="4.29962" gradientUnits="userSpaceOnUse">
<stop offset="0.09" stop-color="#AF1AAC"/>
<stop offset="0.99" stop-color="#4A24AA"/>
</linearGradient>
<clipPath id="clip0_4_1951">
<rect width="25.2599" height="24" fill="white"/>
</clipPath>
</defs>
</svg>
