<svg width="130" height="31" viewBox="0 0 130 31" fill="none" xmlns="http://www.w3.org/2000/svg">
<path d="M8.136 25C7.832 25 7.68 24.896 7.68 24.688V11.44H0.672C0.368 11.44 0.216 11.352 0.216 11.176V8.944C0.216 8.736 0.368 8.632 0.672 8.632H24.216C24.52 8.632 24.672 8.736 24.672 8.944V11.176C24.672 11.352 24.52 11.44 24.216 11.44H17.184V24.688C17.184 24.896 17.04 25 16.752 25H8.136Z" fill="white"/>
<path d="M26.4019 19.9729C26.1126 19.9729 25.9679 19.8227 25.9679 19.5223V9.02509C25.9679 8.73582 26.1126 8.59118 26.4019 8.59118H32.1595C32.4487 8.59118 32.5934 8.73582 32.5934 9.02509V19.5223C32.5934 19.8227 32.4487 19.9729 32.1595 19.9729H26.4019ZM42.201 15.9509C41.9117 15.9509 41.7671 15.8007 41.7671 15.5003V14.4322C41.7671 14.1318 41.9117 13.9816 42.201 13.9816H44.3372C44.6042 13.9816 44.849 13.9538 45.0715 13.8982C45.3051 13.8314 45.5054 13.7313 45.6723 13.5978C45.8392 13.4643 45.9727 13.2918 46.0728 13.0805C46.1729 12.8579 46.223 12.5854 46.223 12.2627C46.223 11.673 46.0394 11.2391 45.6723 10.961C45.3051 10.6828 44.8601 10.5438 44.3372 10.5438H40.7658V19.5223C40.7658 19.8227 40.6156 19.9729 40.3152 19.9729H34.5909C34.3017 19.9729 34.157 19.8227 34.157 19.5223V9.02509C34.157 8.73582 34.3017 8.59118 34.5909 8.59118H48.8598C49.405 8.59118 49.9168 8.67462 50.3952 8.84151C50.8736 9.0084 51.2852 9.25317 51.6301 9.57582C51.9862 9.88734 52.2643 10.2767 52.4646 10.744C52.6648 11.2113 52.765 11.7398 52.765 12.3295C52.765 12.9303 52.6537 13.4587 52.4312 13.9149C52.2087 14.3599 51.9027 14.7326 51.5133 15.033C51.1239 15.3334 50.6622 15.5615 50.1282 15.7173C49.6052 15.873 49.0378 15.9509 48.4259 15.9509H42.201ZM61.6766 15.9509C61.3874 15.9509 61.2427 15.8007 61.2427 15.5003V14.4322C61.2427 14.1318 61.3874 13.9816 61.6766 13.9816H63.8128C64.0798 13.9816 64.3246 13.9538 64.5471 13.8982C64.7807 13.8314 64.981 13.7313 65.1479 13.5978C65.3148 13.4643 65.4483 13.2918 65.5484 13.0805C65.6486 12.8579 65.6986 12.5854 65.6986 12.2627C65.6986 11.673 65.515 11.2391 65.1479 10.961C64.7807 10.6828 64.3357 10.5438 63.8128 10.5438H60.2414V19.5223C60.2414 19.8227 60.0912 19.9729 59.7908 19.9729H54.0666C53.7773 19.9729 53.6327 19.8227 53.6327 19.5223V9.02509C53.6327 8.73582 53.7773 8.59118 54.0666 8.59118H68.3354C68.8806 8.59118 69.3924 8.67462 69.8708 8.84151C70.3492 9.0084 70.7609 9.25317 71.1058 9.57582C71.4618 9.88734 71.7399 10.2767 71.9402 10.744C72.1405 11.2113 72.2406 11.7398 72.2406 12.3295C72.2406 12.9303 72.1293 13.4587 71.9068 13.9149C71.6843 14.3599 71.3784 14.7326 70.989 15.033C70.5995 15.3334 70.1378 15.5615 69.6038 15.7173C69.0809 15.873 68.5135 15.9509 67.9015 15.9509H61.6766ZM82.1536 14.7493C81.8532 14.7493 81.703 14.6047 81.703 14.3154V13.2306C81.703 12.9414 81.8532 12.7967 82.1536 12.7967H90.1308C90.4201 12.7967 90.5647 12.8969 90.5647 13.0971V14.4489C90.5647 14.6492 90.4201 14.7493 90.1308 14.7493H82.1536ZM78.5822 19.9729C77.7923 19.9729 77.0635 19.8338 76.396 19.5557C75.7284 19.2664 75.1499 18.8714 74.6603 18.3708C74.1708 17.859 73.787 17.2582 73.5088 16.5684C73.2418 15.8675 73.1083 15.1054 73.1083 14.282C73.1083 13.4699 73.2362 12.7189 73.4921 12.0291C73.7592 11.3281 74.1319 10.7218 74.6103 10.21C75.0887 9.6982 75.6617 9.30323 76.3292 9.02509C77.0079 8.73582 77.7589 8.59118 78.5822 8.59118H90.2476C90.548 8.59118 90.6982 8.73582 90.6982 9.02509V10.0932C90.6982 10.3936 90.548 10.5438 90.2476 10.5438H82.4874C82.1202 10.5438 81.8087 10.5827 81.5528 10.6606C81.308 10.7385 81.1078 10.8775 80.952 11.0778C80.7962 11.2781 80.685 11.5451 80.6182 11.8789C80.5515 12.2126 80.5181 12.6354 80.5181 13.1472V14.9663C80.5181 15.5337 80.557 16.0121 80.6349 16.4015C80.7128 16.7909 80.8296 17.1024 80.9854 17.3361C81.1523 17.5697 81.3581 17.7422 81.6029 17.8534C81.8476 17.9536 82.1425 18.0036 82.4874 18.0036H90.2977C90.5981 18.0036 90.7483 18.1538 90.7483 18.4542V19.5223C90.7483 19.8227 90.5981 19.9729 90.2977 19.9729H78.5822ZM106.3 19.9729C105.855 19.9729 105.488 19.8227 105.198 19.5223L100.175 14.3655C100.086 14.2765 100.014 14.193 99.9581 14.1152C99.9136 14.0261 99.8914 13.9038 99.8914 13.748V13.2306C99.8914 12.9414 100.036 12.7967 100.325 12.7967H102.612C103.146 12.7967 103.541 12.6966 103.797 12.4963C104.064 12.2961 104.197 12.0179 104.197 11.6619C104.197 10.9165 103.669 10.5438 102.612 10.5438H98.8901V19.5223C98.8901 19.8227 98.7399 19.9729 98.4395 19.9729H92.7152C92.4148 19.9729 92.2646 19.8227 92.2646 19.5223V9.02509C92.2646 8.73582 92.4148 8.59118 92.7152 8.59118H107.301C107.802 8.59118 108.269 8.6635 108.703 8.80813C109.137 8.94164 109.51 9.13635 109.821 9.39224C110.144 9.64813 110.394 9.95409 110.572 10.3101C110.75 10.6661 110.839 11.0611 110.839 11.495C110.839 11.9623 110.75 12.3851 110.572 12.7634C110.405 13.1305 110.172 13.4476 109.871 13.7146C109.582 13.9816 109.237 14.1986 108.837 14.3655C108.447 14.5324 108.03 14.6492 107.585 14.7159L112.191 19.4389C112.269 19.5056 112.308 19.5946 112.308 19.7059C112.308 19.7726 112.28 19.8338 112.224 19.8895C112.18 19.9451 112.108 19.9729 112.007 19.9729H106.3ZM113.471 19.9729C113.182 19.9729 113.037 19.8227 113.037 19.5223V18.4542C113.037 18.1538 113.182 18.0036 113.471 18.0036H122.833L114.973 14.3154C114.55 14.1152 114.205 13.9093 113.938 13.6979C113.671 13.4754 113.46 13.2473 113.304 13.0137C113.159 12.7689 113.059 12.513 113.004 12.246C112.959 11.979 112.937 11.6953 112.937 11.3949C112.937 11.0277 113.004 10.6773 113.137 10.3435C113.271 9.9986 113.471 9.6982 113.738 9.4423C114.016 9.17529 114.355 8.96946 114.756 8.82482C115.168 8.66906 115.64 8.59118 116.175 8.59118H128.457C128.758 8.59118 128.908 8.73582 128.908 9.02509V10.0932C128.908 10.3936 128.758 10.5438 128.457 10.5438H119.412L127.256 14.232C127.69 14.4322 128.035 14.6436 128.291 14.8661C128.558 15.0775 128.763 15.3056 128.908 15.5504C129.064 15.784 129.164 16.0399 129.208 16.3181C129.264 16.5851 129.292 16.8688 129.292 17.1692C129.292 17.5363 129.225 17.8924 129.092 18.2373C128.958 18.571 128.752 18.8714 128.474 19.1385C128.207 19.3944 127.873 19.6002 127.473 19.7559C127.072 19.9006 126.605 19.9729 126.071 19.9729H113.471Z" fill="white"/>
<rect x="25" y="23" width="105" height="2" fill="white"/>
</svg>
